<?xml version="1.0" encoding="iso-8859-1"?>
<!-- Generator: Adobe Illustrator 16.0.0, SVG Export Plug-In . SVG Version: 6.00 Build 0)  -->
<!DOCTYPE svg PUBLIC "-//W3C//DTD SVG 1.1//EN" "http://www.w3.org/Graphics/SVG/1.1/DTD/svg11.dtd">
<svg version="1.1" id="Capa_1" xmlns="http://www.w3.org/2000/svg" xmlns:xlink="http://www.w3.org/1999/xlink" x="0px" y="0px"
	 width="323.275px" height="323.275px" viewBox="0 0 323.275 323.275" style="enable-background:new 0 0 323.275 323.275;"
	 xml:space="preserve">
<g>
	<path d="M19.474,249.498c19.327,0.937,38.641,1.135,57.949,0.931c-6.149,17.654-8.214,35.74-5.684,55.437
		c1.189,9.235,9.01,18.356,19.462,14.825c49.624-16.812,102.682-1.122,153.734-7.649c8.005-1.026,15.787-6.228,15.372-15.372
		c-0.769-16.855-4.022-34.078-10.61-49.792c11.283-0.3,22.446-0.979,33.309-2.45c60.126-8.154,35.939-101.063,32.996-141.653
		c-1.819-25.082,3.549-49.762,0.049-74.921C312.892,6.1,287.468,3.196,269.123,2.164c-30.547-1.72-61.705,3.345-92.342,3.519
		c-53.809,0.306-107.6,1.855-161.409,1.96c-4.419,0.006-7.797,1.585-10.245,3.966C2.066,14.08-0.018,17.863,0,23.009
		C0.204,93.4,3.9,163.731,4.102,234.12C4.128,242.814,11.088,249.084,19.474,249.498z M101.604,286.115
		c0.537-12.514,3.456-24.325,9.274-36.396c16.405-0.51,32.816-1.194,49.227-1.891c17.937-0.763,36.504-0.259,55.082,0.054
		c6.702,10.929,10.857,23.179,12.917,35.825C185.854,285.875,143.067,277.774,101.604,286.115z M219.674,35.079
		c8.587-0.682,63.849-8.719,66.725,1.931c5.585,20.687-2.287,45.423-1.146,66.752c1.23,23.064,4.323,45.97,5.284,69.067
		c0.486,11.602,0.378,23.334-1.861,34.744c-2.744,13.961-30.919,7.355-41.697,7.073c-70.821-1.874-141.461,6.413-212.333,4.527
		c-0.567-60.267-3.119-120.504-3.702-180.769C93.63,38.559,157.383,40.054,219.674,35.079z"/>
	<path d="M76.855,194.392c56.625-14.711,114.392-8.562,172.17-9.974c3.963-0.102,7.992-3.435,7.686-7.687
		c-2.378-33.5,18.525-90.591-18.362-111.37c-19.84-11.172-53.773-6.275-75.234-5.582c-32.198,1.045-64.281,4.384-96.503,4.735
		c-2.12,0.023-3.756,0.769-4.966,1.888c-1.606,1.234-2.72,3.153-2.72,5.797c0.018,38.936-0.493,78.705,8.473,116.824
		C68.371,193.144,72.922,195.413,76.855,194.392z M198.627,74.843c13.259,0.264,32.348-0.658,41.091,11.697
		c6.209,8.761,4.546,23.137,4.222,33.267c-0.547,16.564-3.111,32.846-2.895,49.378c-53.81,0.768-107.489-3.495-160.295,8.484
		c-6.47-32.057-6.488-65.306-6.458-97.969C115.772,78.743,157.089,74.014,198.627,74.843z"/>
</g>
<g>
</g>
<g>
</g>
<g>
</g>
<g>
</g>
<g>
</g>
<g>
</g>
<g>
</g>
<g>
</g>
<g>
</g>
<g>
</g>
<g>
</g>
<g>
</g>
<g>
</g>
<g>
</g>
<g>
</g>
</svg>
